Coordinates
version=1
nRows=11
nColumns=36
inDegrees=yes

Units are S.I. units (second, meters, Newtons, ...)
If the header above contains a line with 'inDegrees', this indicates whether rotational values are in degrees (yes) or radians (no).

endheader
time	pelvis_tilt	pelvis_list	pelvis_rotation	pelvis_tx	pelvis_ty	pelvis_tz	hip_flexion_r	hip_adduction_r	hip_rotation_r	knee_angle_r	knee_angle_r_beta	ankle_angle_r	subtalar_angle_r	mtp_angle_r	hip_flexion_l	hip_adduction_l	hip_rotation_l	knee_angle_l	knee_angle_l_beta	ankle_angle_l	subtalar_angle_l	mtp_angle_l	lumbar_extension	lumbar_bending	lumbar_rotation	arm_flex_r	arm_add_r	arm_rot_r	elbow_flex_r	pro_sup_r	arm_flex_l	arm_add_l	arm_rot_l	elbow_flex_l	pro_sup_l
      2.07916670	    -15.80635485	      1.51940910	      1.70675285	      0.32320126	      1.08185080	     -0.02086645	     14.24870797	     -3.65985584	    -10.75700156	      0.70972568	      0.01238705	    -33.59691042	    -13.34205591	     -7.49999987	     15.86244968	     -5.71724272	     -8.27330340	      8.48233821	      0.14804473	    -28.13711571	    -12.42317131	     -7.49999987	      0.54997868	     -4.97805334	     -3.63067535	     21.77678760	    -23.67077221	     22.94656643	     85.47472160	     89.64931281	     29.52458698	    -27.61261491	      5.96867457	    124.50895762	     76.67117445
      2.08333330	    -15.44658653	      1.55006666	      1.73969404	      0.32290118	      1.08817799	     -0.02031059	     13.76740489	     -3.50041954	    -11.10332052	      0.74472779	      0.01299795	    -33.85966071	    -13.46421471	     -7.49999987	     15.63443861	     -5.81758037	     -7.84634967	      9.06475148	      0.15820976	    -28.49468214	    -12.81929842	     -7.49999987	      0.38144645	     -5.31467507	     -3.73720450	     21.59116473	    -22.86518757	     22.19810869	     83.86318536	     89.59628259	     29.87439887	    -27.02623518	      6.06603994	    123.90021286	     76.70888227
      2.08750000	    -15.16628095	      1.49215328	      1.72519701	      0.32343960	      1.09144293	     -0.02144230	     13.38753094	     -3.23973153	    -11.33197836	      0.92857632	      0.01620671	    -34.62385248	    -13.63056003	     -7.49999987	     15.38704435	     -5.95484138	     -7.56115132	      9.45081945	      0.16494792	    -29.07429498	    -13.06116607	     -7.49999987	      0.34477436	     -5.36463572	     -3.87132066	     21.18509208	    -22.19062733	     21.53467232	     82.74668698	     89.57408176	     29.96466805	    -26.22967185	      6.10451722	    123.20277695	     76.75226203
      2.09166670	    -14.80084505	      1.33073152	      1.75543495	      0.32811954	      1.09515331	     -0.01673905	     12.81089926	     -2.72700709	    -11.64833374	      1.26552191	      0.02208752	    -34.86769289	    -14.27080030	     -7.49999987	     14.95384650	     -6.20997247	     -6.83733038	      9.81911079	      0.17137581	    -29.93893554	    -13.13341483	     -7.49999987	      0.26850978	     -5.43785443	     -3.88567696	     20.79405903	    -21.59604636	     20.77891579	     81.59627408	     89.52899656	     30.12993153	    -25.59983653	      6.40751383	    122.25761428	     76.80005292
      2.09583330	    -14.62179773	      1.21987797	      1.94798093	      0.33302743	      1.10212010	     -0.01378434	     12.30472887	     -2.26871537	    -11.62645707	      1.79648190	      0.03135452	    -34.49591152	    -14.78918810	     -7.49999987	     14.57637597	     -6.34760778	     -6.40712136	      9.94552885	      0.17358222	    -31.13750179	    -12.97465008	     -7.49999987	      0.48449541	     -5.62469467	     -3.71673985	     19.85330588	    -20.71020742	     19.63049780	     80.55165483	     89.47239125	     30.10495689	    -25.03759883	      6.90000395	    121.29311552	     76.84358423
      2.10000000	    -14.39690864	      1.23920328	      2.19434373	      0.32885822	      1.10330853	     -0.01809807	     12.28321160	     -2.18411204	    -11.19445973	      3.04251618	      0.05310192	    -33.92291986	    -15.37430059	     -7.49999987	     14.64859585	     -6.31798337	     -6.12304729	     10.80239665	      0.18853739	    -31.94348815	    -13.25785245	     -7.49999987	      0.31050478	     -5.78433810	     -3.84477776	     19.36840276	    -20.31562879	     19.09014217	     79.88770646	     89.46162213	     30.27429772	    -24.73112190	      7.04346199	    120.96858780	     76.84128827
      2.10416670	    -14.18330828	      1.12339739	      2.57450211	      0.33359323	      1.11379176	     -0.01580689	     12.15420507	     -2.01521185	    -10.42945876	      4.16237695	      0.07264718	    -33.36206079	    -16.51145663	     -7.49999987	     14.54748073	     -6.35487940	     -5.70049310	     11.25555349	      0.19644647	    -33.02314864	    -13.22679178	     -7.49999987	      0.30492673	     -5.98115453	     -3.30355549	     17.90669454	    -19.74832877	     16.68845556	     78.47590381	     90.14999566	     31.16286624	    -23.99892394	      8.77908947	    119.66709186	     76.75116089
      2.10833330	    -14.03544309	      1.20280725	      2.82876166	      0.33387180	      1.11785544	     -0.01567964	     12.15104601	     -1.97197701	     -9.20991050	      5.58418025	      0.09746233	    -33.01197430	    -17.30117859	     -7.49999987	     14.84840944	     -6.32844568	     -4.85021714	     12.22075940	      0.21329249	    -33.97573424	    -13.57364232	     -7.49999987	      0.18746775	     -6.13757095	     -3.40381658	     17.84068710	    -19.05492903	     16.12382310	     76.99340792	     90.12048705	     31.23409560	    -23.90008523	      9.19953276	    119.69820455	     76.73704858
      2.11250000	    -13.79589352	      1.50373832	      3.17360778	      0.33765412	      1.11841948	     -0.02165824	     12.02044619	     -2.37037665	     -8.31391277	      7.09771594	      0.12387851	    -32.78964358	    -17.41997580	     -7.49999987	     14.92097391	     -5.82358261	     -3.82352258	     13.03284135	      0.22746599	    -34.10233327	    -13.36984018	     -7.49999987	      0.05209530	     -6.37949085	     -3.52914612	     17.68416632	    -18.84178070	     15.79300673	     75.93744123	     89.99671038	     31.26972481	    -23.77753030	      9.47759219	    119.71896865	     76.65310074
      2.11666670	    -13.57858528	      1.66095582	      3.10459183	      0.33735152	      1.11986071	     -0.02086536	     12.17713377	     -2.51496619	     -7.15789026	      8.60593630	      0.15020192	    -32.74038358	    -17.82806221	     -7.49999987	     15.02623798	     -5.53599968	     -2.46213155	     13.89387944	      0.24249394	    -34.11878501	    -13.58204450	     -7.49999987	     -0.01199587	     -6.47714837	     -3.23208151	     17.60077329	    -18.69405668	     15.45694756	     74.75550917	     87.71780703	     31.61421022	    -23.35420261	     10.27926668	    119.56662936	     75.09787830
      2.12083330	    -13.65063719	      1.75638211	      3.10761952	      0.33857712	      1.12974863	     -0.01244376	     12.46114753	     -2.41560271	     -6.27394636	      9.57204064	      0.16706363	    -33.14187017	    -18.00030418	     -7.49999987	     15.34413364	     -5.48321536	     -1.67715117	     14.27361940	      0.24912165	    -34.25800414	    -13.38505944	     -7.49999987	      0.14100801	     -6.54714662	     -3.64633463	     18.19368260	    -17.81728605	     16.08916865	     72.85176015	     89.14178789	     30.93643886	    -23.57087107	      9.55015061	    119.95517598	     75.41837014
